<svg width="512" height="512" xmlns="http://www.w3.org/2000/svg">
  <!-- Simple GeoHog logo with minimal black and white design -->
  <g>
    <!-- Background circle -->
    <circle cx="256" cy="256" r="240" fill="white" stroke="black" stroke-width="16"/>
    
    <!-- Hog silhouette -->
    <path fill="black" d="M380,280 C380,220 340,180 290,180 C270,180 254,185 240,195 C226,185 210,180 190,180 C140,180 100,220 100,280 C100,340 140,380 190,380 C240,380 270,340 270,280 L214,280 L214,240 L270,240 C270,220 240,220 240,240 L190,240 L190,280 L240,280 C240,320 220,340 190,340 C160,340 140,320 140,280 C140,240 160,220 190,220 C210,220 220,230 220,230 L260,230 C260,230 270,220 290,220 C320,220 340,240 340,280 C340,320 320,340 290,340 L290,380 C340,380 380,340 380,280 Z"/>
    
    <!-- Geological element - crystalline structure -->
    <path fill="black" d="M256,100 L300,150 L350,120 L340,180 L380,220 L320,230 L310,280 L270,240 L220,270 L240,220 L200,190 L256,170 Z"/>
  </g>
</svg>